ply
format ascii 1.0
element vertex 12
property float x
property float y
property float z
element face 18
property list uchar uint vertex_indices
end_header
5.560 5.488 0.0   
5.560 5.488 5.592
0.0 5.488 5.592
0.0 5.488 0.0
3.43 5.488 2.27
3.43 5.488 3.32
2.13 5.488 3.32
2.13 5.488 2.27
3.43 5.888 2.27
3.43 5.888 3.32
2.13 5.888 3.32
2.13 5.888 2.27
3 0 4 7
3 7 3 0
3 1 5 4
3 4 0 1
3 2 6 5
3 5 1 2
3 3 7 6
3 6 2 3
3 4 8 11
3 11 7 4
3 5 9 8
3 8 4 5
3 6 10 9
3 9 5 6
3 7 11 10
3 10 6 7
3 8 9 10
3 10 11 8